<svg id="Layer_1" data-name="Layer 1" xmlns="http://www.w3.org/2000/svg" viewBox="0 0 100 100"><defs><style>.cls-1{fill:#2b2b2d;}.cls-2{fill:#b5b5b9;}.cls-3{fill:#ec4a4a;}.cls-4{fill:#f5bb34;}</style></defs><title>Artboard 1 copy 8</title><path class="cls-1" d="M77.93,3.49a1.31,1.31,0,0,1,1.22,1.75l-2.37,6.5a6.65,6.65,0,0,0,5.74,8.88,4.71,4.71,0,0,0,.53,0,6.84,6.84,0,0,0,6.27-4.59l2.33-6.4a1.29,1.29,0,0,1,1.23-.86,1.27,1.27,0,0,1,1.06.56,14.77,14.77,0,0,1-6.47,22,14.87,14.87,0,0,1-4.16,1,8.65,8.65,0,0,0-4.91,2L57.55,52.45l8,8,2.28-2.28a1.43,1.43,0,0,1,.91-.38h0a1.52,1.52,0,0,1,.92.38c3.13,2.5,3.23,2.87,3.17,3.18-.09.53-.6.57-.92,1.52a4.19,4.19,0,0,0-.16,1.09,3.69,3.69,0,0,0,3.69,3.69,4.16,4.16,0,0,0,1.09-.16A4,4,0,0,0,78,66.53a.66.66,0,0,1,.38-.11c3.17,0,15.85,16.35,15.85,16.35a8.71,8.71,0,0,1,2.23,5.39,8.41,8.41,0,0,1-2.23,5.38l-.75.75a8.41,8.41,0,0,1-5.38,2.22,8.7,8.7,0,0,1-5.39-2.22S64.8,80.38,66.49,78.06a4.11,4.11,0,0,0,.92-1.53,4.16,4.16,0,0,0,.16-1.09,3.69,3.69,0,0,0-3.69-3.69,4.11,4.11,0,0,0-1.11.17c-.94.32-1,.82-1.5.91h-.1c-.31,0-.83-.36-3.08-3.18a1.52,1.52,0,0,1-.38-.92,1.43,1.43,0,0,1,.38-.91l2.32-2.32-8.33-8.33L35.92,71.23a9,9,0,0,0-3.05,8.41,15.09,15.09,0,0,1,.25,2.71A14.7,14.7,0,0,1,22.51,96.46a1.2,1.2,0,0,1-.36.05,1.31,1.31,0,0,1-1.22-1.75l2.37-6.5a6.65,6.65,0,0,0-5.74-8.88,4.71,4.71,0,0,0-.53,0,6.85,6.85,0,0,0-6.27,4.59l-2.32,6.4a1.31,1.31,0,0,1-1.24.86,1.27,1.27,0,0,1-1.06-.56,14.77,14.77,0,0,1,6.47-22,14.87,14.87,0,0,1,4.16-1,8.65,8.65,0,0,0,4.91-2L42.49,47.59,15.68,20.78A2.69,2.69,0,0,0,14.15,20l-4.43-.63a2.69,2.69,0,0,1-2-1.47L3.77,10.08A2.69,2.69,0,0,1,4.28,7L7,4.28a2.71,2.71,0,0,1,3.11-.51l7.84,3.91a2.69,2.69,0,0,1,1.47,2L20,14.15a2.69,2.69,0,0,0,.76,1.53L48,42.86l16.2-14.09a9,9,0,0,0,3-8.41A15.09,15.09,0,0,1,67,17.65,14.7,14.7,0,0,1,77.57,3.54a1.16,1.16,0,0,1,.36,0m0-3.49h0a5.1,5.1,0,0,0-1.34.19A18.31,18.31,0,0,0,63.47,17.65,18,18,0,0,0,63.79,21a5.52,5.52,0,0,1-1.92,5.13l-13.75,12L23.43,13.41l-.59-4.18a6.18,6.18,0,0,0-3.36-4.67L11.64.65A6.32,6.32,0,0,0,8.88,0,6.16,6.16,0,0,0,4.5,1.81L1.81,4.51A6.17,6.17,0,0,0,.65,11.64l3.91,7.84a6.18,6.18,0,0,0,4.67,3.36l4.18.59,24,24-18,15.64a5.37,5.37,0,0,1-2.95,1.15A18,18,0,0,0,.59,78,18.19,18.19,0,0,0,3.26,92.61a4.8,4.8,0,0,0,8.45-1.07L14,85.14a3.34,3.34,0,0,1,3-2.3h.23A3.16,3.16,0,0,1,20,87.07l-2.36,6.5A4.8,4.8,0,0,0,22.15,100a5.1,5.1,0,0,0,1.34-.19A18.31,18.31,0,0,0,36.61,82.35,18.12,18.12,0,0,0,36.29,79a5.51,5.51,0,0,1,1.91-5.13L51.92,61.94l3.57,3.57,0,0a4.76,4.76,0,0,0-.08,6.27c2.42,3,3.67,4.49,5.8,4.49h.32l.4-.06a4.33,4.33,0,0,0,2.06-1,.18.18,0,0,1,.14.17.39.39,0,0,1-.13.21l-.1.11-.19.25C62,78.25,60,81.05,80.59,97a12.08,12.08,0,0,0,7.53,3,11.73,11.73,0,0,0,7.66-3.07l.1-.08.09-.09.75-.75.09-.09.08-.1A11.73,11.73,0,0,0,100,88.16,12.14,12.14,0,0,0,97,80.63h0a98.49,98.49,0,0,0-6.86-8.34c-7.55-8.65-9.86-9.36-11.74-9.36a4.09,4.09,0,0,0-2.43.77l-.12.09-.24.2a.83.83,0,0,1-.15.12h0a.25.25,0,0,1-.23-.11,4.37,4.37,0,0,0,1-2.09c.47-2.61-1.48-4.17-4.43-6.51a4.87,4.87,0,0,0-3.09-1.14,4.8,4.8,0,0,0-3.18,1.22h0l-2.87-2.86L80.69,37a5.37,5.37,0,0,1,3-1.15A18,18,0,0,0,99.49,22,18.19,18.19,0,0,0,96.82,7.39a4.8,4.8,0,0,0-8.45,1.08L86,14.86a3.34,3.34,0,0,1-3,2.3h-.23a3.16,3.16,0,0,1-2.76-4.22l2.36-6.5A4.8,4.8,0,0,0,77.93,0Z"/><path class="cls-2" d="M94,9.36a1.31,1.31,0,0,0-2.3.3l-2.32,6.4a6.77,6.77,0,0,1-6.8,4.56,6.65,6.65,0,0,1-5.74-8.88l2.37-6.5a1.31,1.31,0,0,0-1.58-1.7A14.7,14.7,0,0,0,67,17.65a15.09,15.09,0,0,0,.25,2.71,9,9,0,0,1-3,8.41L46.44,44.21h0L21.72,65.68a8.65,8.65,0,0,1-4.91,2,14.87,14.87,0,0,0-4.16,1,14.77,14.77,0,0,0-6.47,22,1.3,1.3,0,0,0,2.29-.3l2.33-6.4a6.77,6.77,0,0,1,6.8-4.56,6.65,6.65,0,0,1,5.74,8.88L21,94.76a1.3,1.3,0,0,0,1.58,1.7A14.7,14.7,0,0,0,33.16,82.35a15.09,15.09,0,0,0-.25-2.71A9,9,0,0,1,36,71.23L53.72,55.79h0L78.44,34.32a8.65,8.65,0,0,1,4.91-2A14.73,14.73,0,0,0,94,9.36Z"/><rect class="cls-3" x="43.27" y="27" width="13.53" height="46.01" rx="1.29" transform="translate(54.95 -20.57) rotate(49)"/><path class="cls-2" d="M10.12,3.77,18,7.68a2.69,2.69,0,0,1,1.47,2l.63,4.43a2.69,2.69,0,0,0,.76,1.53l45,45-5.09,5.09-45-45A2.69,2.69,0,0,0,14.19,20l-4.43-.63a2.69,2.69,0,0,1-2-1.47L3.81,10.08A2.68,2.68,0,0,1,4.32,7L7,4.28A2.69,2.69,0,0,1,10.12,3.77Z"/><path class="cls-4" d="M94.29,82.77S80.38,64.84,78.06,66.53a4,4,0,0,1-1.53.92,4.16,4.16,0,0,1-1.09.16,3.69,3.69,0,0,1-3.69-3.69,4.19,4.19,0,0,1,.16-1.09c.32-.95.83-1,.92-1.52.06-.31,0-.68-3.17-3.18a1.52,1.52,0,0,0-.92-.38,1.43,1.43,0,0,0-.91.38l-9.7,9.7a1.43,1.43,0,0,0-.38.91,1.52,1.52,0,0,0,.38.92c2.49,3.12,2.86,3.23,3.18,3.17.53-.09.56-.59,1.5-.91a4.11,4.11,0,0,1,1.11-.17,3.69,3.69,0,0,1,3.69,3.69,4.16,4.16,0,0,1-.16,1.09,4.11,4.11,0,0,1-.92,1.53c-1.69,2.32,16.24,16.23,16.24,16.23a8.7,8.7,0,0,0,5.39,2.22,8.41,8.41,0,0,0,5.38-2.22l.75-.75a8.41,8.41,0,0,0,2.23-5.38A8.71,8.71,0,0,0,94.29,82.77Z"/></svg>