<svg id="Layer_1" data-name="Layer 1" xmlns="http://www.w3.org/2000/svg" viewBox="0 0 100 100"><defs><style>.cls-1{fill:#b5b5b9;}.cls-2{fill:#919399;}.cls-3{fill:#ec4a4a;}.cls-4{fill:#b62934;}.cls-5{fill:#f5bb34;}.cls-6{fill:#dba328;}</style></defs><title>Artboard 1 copy 10</title><path class="cls-1" d="M97.23,6.32a1.4,1.4,0,0,0-2.47.32l-2.5,6.87A7.28,7.28,0,0,1,85,18.42a7.14,7.14,0,0,1-6.16-9.54l2.54-7A1.4,1.4,0,0,0,79.64.06,15.79,15.79,0,0,0,68.23,15.22a15.55,15.55,0,0,0,.27,2.92,9.69,9.69,0,0,1-3.28,9L46.13,43.77h0L19.55,66.86A9.3,9.3,0,0,1,14.28,69a16,16,0,0,0-4.47,1.09,15.89,15.89,0,0,0-7,23.6,1.4,1.4,0,0,0,2.47-.32l2.5-6.87a7.29,7.29,0,0,1,7.31-4.91,7.14,7.14,0,0,1,6.17,9.54l-2.55,7a1.4,1.4,0,0,0,1.7,1.83A15.79,15.79,0,0,0,31.86,84.78a15.54,15.54,0,0,0-.28-2.92,9.69,9.69,0,0,1,3.28-9L54,56.23h0L80.53,33.14A9.33,9.33,0,0,1,85.81,31a16,16,0,0,0,4.46-1.09,15.88,15.88,0,0,0,7-23.6Z"/><path class="cls-2" d="M97.79,18.05c-3.43,6.11-5.14,9.16-8.05,9.64-1.57.26-3.64-.18-6.24,1.21a10.75,10.75,0,0,0-1.29.84,29,29,0,0,0-6.42,5.86c-4.74,5.68-29.94,19.84-44.47,34.05a18.58,18.58,0,0,0-4.51,6.24c-2.57,6.1,1,10.71-.69,16a30.14,30.14,0,0,1-3.42,7.23,15.78,15.78,0,0,0,9.12-14.29,15.54,15.54,0,0,0-.28-2.92,9.69,9.69,0,0,1,3.28-9L53.91,56.23h0L80.49,33.14A9.3,9.3,0,0,1,85.76,31a16,16,0,0,0,4.47-1.09A15.74,15.74,0,0,0,99.51,19a16.61,16.61,0,0,0,.39-5.11C99.14,15.55,98.42,16.93,97.79,18.05Z"/><rect class="cls-3" x="42.73" y="25.27" width="14.54" height="49.46" rx="1.39" transform="translate(54.93 -20.54) rotate(49)"/><path class="cls-4" d="M44.73,60.76A32.59,32.59,0,0,1,33,68.08a20.7,20.7,0,0,0,2.25,2.58,1.6,1.6,0,0,0,.95.48,1.43,1.43,0,0,0,1-.34L72.38,40.18a1.38,1.38,0,0,0,.16-1.93C56.85,49.76,48.89,56.54,44.73,60.76Z"/><path class="cls-1" d="M7.09.31l8.43,4.2A2.86,2.86,0,0,1,17.1,6.7l.67,4.77a2.92,2.92,0,0,0,.82,1.64L67,61.47,61.47,67,13.11,18.59a2.92,2.92,0,0,0-1.64-.82L6.7,17.1a2.86,2.86,0,0,1-2.19-1.58L.31,7.09A2.91,2.91,0,0,1,.85,3.74L3.74.85A2.91,2.91,0,0,1,7.09.31Z"/><path class="cls-2" d="M21.54,24.87A34.48,34.48,0,0,0,14.91,18c-3.43-2.66-5.67-3.33-8.21-4.94A23.76,23.76,0,0,1,.13,6.66a2.35,2.35,0,0,0,.13.43l4.21,8.43A2.86,2.86,0,0,0,6.66,17.1l4.76.67a3,3,0,0,1,1.65.82L61.42,67l2-2C35.5,39.85,24.71,29.06,21.54,24.87Z"/><path class="cls-5" d="M97.57,85.22S82.62,66,80.12,67.77a4.54,4.54,0,0,1-1.64,1,4.7,4.7,0,0,1-1.17.17,4,4,0,0,1-4-4,4.56,4.56,0,0,1,.17-1.17c.34-1,.89-1.06,1-1.64.06-.32,0-.73-3.41-3.41a1.6,1.6,0,0,0-1-.4,1.57,1.57,0,0,0-1,.4L58.7,69.16a1.57,1.57,0,0,0-.41,1,1.6,1.6,0,0,0,.41,1c2.67,3.35,3.07,3.47,3.41,3.41.57-.1.61-.64,1.62-1a4.47,4.47,0,0,1,1.19-.18,4,4,0,0,1,4,4,4.49,4.49,0,0,1-.17,1.16,4.57,4.57,0,0,1-1,1.65c-1.82,2.5,17.45,17.45,17.45,17.45A9.4,9.4,0,0,0,91,100a9.06,9.06,0,0,0,5.79-2.39l.81-.8A9.09,9.09,0,0,0,100,91,9.43,9.43,0,0,0,97.57,85.22Z"/><path class="cls-6" d="M71.14,81.68c-.17-2.21,1.23-3.23.53-6.14-.08-.31-1.08-4.22-4.06-5.24-1.39-.47-2.15,0-4.44.27a18.74,18.74,0,0,1-4.82-.2,1.8,1.8,0,0,0,.35.76c2.67,3.35,3.07,3.47,3.41,3.41.57-.1.61-.64,1.61-1a4.59,4.59,0,0,1,1.2-.18,4,4,0,0,1,4,4,4.49,4.49,0,0,1-.17,1.16,4.57,4.57,0,0,1-1,1.65c-1.82,2.5,17.45,17.45,17.45,17.45A9.4,9.4,0,0,0,91,100a7.38,7.38,0,0,0,2.41-.44A63.22,63.22,0,0,0,86.57,94C78.42,88.25,71.51,86.4,71.14,81.68Z"/></svg>